inDegrees=yes
name=results_flex.mot
DataType=double
version=3
OpenSimVersion=4.3-2021-08-27-4bc7ad9
endheader
time	pelvis_tilt	pelvis_list	pelvis_rotation	pelvis_tx	pelvis_ty	pelvis_tz	hip_flexion_r	hip_adduction_r	hip_rotation_r	knee_angle_r	knee_angle_r_beta	ankle_angle_r	subtalar_angle_r	mtp_angle_r	hip_flexion_l	hip_adduction_l	hip_rotation_l	knee_angle_l	knee_angle_l_beta	ankle_angle_l	subtalar_angle_l	mtp_angle_l	lumbar_extension	lumbar_bending	lumbar_rotation	arm_flex_r	arm_add_r	arm_rot_r	elbow_flex_r	pro_sup_r	wrist_flex_r	wrist_dev_r	arm_flex_l	arm_add_l	arm_rot_l	elbow_flex_l	pro_sup_l	wrist_flex_l	wrist_dev_l
50	-0.9500711983543286	-1.275456603516017	-90.2392084461449	0	0.9399999999999999	0	45.0236359073097	-9.981419027096877	0	59.43401911551314	1.037319321258952	-4.988781793816603	0	0	45.0236359073097	-9.981419027096877	0	59.43401911551314	1.037319321258952	-4.988781793816603	0	0	-0.9480108189299316	3.801990090156594	-0.5932614733105195	4.330847937985777	-7.010579296698395	-0.7376158656048203	18.03942788356968	45.02062890778738	0	0	0	-13.17874530359445	0	75.24347808817856	45.02062890778738	0	0
51	-0.950527395174245	-1.281062742067604	-90.24127555852353	0	0.9399999999999999	0	45.02327790943435	-9.982101815635612	0	59.44252599765964	1.037467794361488	-4.989276975402865	0	0	45.02327790943435	-9.982101815635612	0	59.44252599765964	1.037467794361488	-4.989276975402865	0	0	-0.9484172770631956	3.802228172221317	-0.5888711320259197	4.877606351203013	-5.773290811674692	-2.246994419616301	26.99496617734283	45.01998469228268	0	0	0	-13.19548420002231	0	75.23979292238599	45.01998469228268	0	0
52	-0.9481456846052215	-1.289556927967866	-90.23861060627605	0	0.9399999999999999	0	45.02294878320567	-9.982717035509848	0	59.45034382359811	1.037604241164462	-4.989720034563446	0	0	45.02294878320567	-9.982717035509848	0	59.45034382359811	1.037604241164462	-4.989720034563446	0	0	-0.9756381058274738	3.798974445004633	-0.5971276100361972	5.903328579310871	-4.629888830003714	-3.287229586760064	35.54942586421943	45.01940120810472	0	0	0	-13.21095734413593	0	75.23640495663037	45.01940120810472	0	0
53	-0.9574834794752006	-1.275978559236927	-90.23963662007156	0	0.9399999999999999	0	45.02259966483543	-9.983355881286275	0	59.45863610859148	1.03774896884011	-4.990176682969972	0	0	45.02259966483543	-9.983355881286275	0	59.45863610859148	1.03774896884011	-4.990176682969972	0	0	-0.9444680902847757	3.804696626451841	-0.5927620822215307	6.220031906652296	-3.104295127984478	-3.956706864701287	44.4184170692801	45.01879196281812	0	0	0	-13.22746385161055	0	75.23281119592207	45.01879196281812	0	0
54	-0.3737180077618976	-0.7619930948193877	-89.47450779447287	0	0.9399999999999999	0	45.02225166163837	-9.983977407456004	0	59.46691072930227	1.037893388215867	-4.990617266440154	0	0	45.02225166163837	-9.983977407456004	0	59.46691072930227	1.037893388215867	-4.990617266440154	0	0	-0.3990760171899527	3.233644987090794	-1.351569308708075	6.390172490334557	-1.534998924894798	-5.210213921746806	53.24349935972744	45.01819554699893	0	0	0	-13.24402902003218	0	75.22922891520123	45.01819554699893	0	0
55	-0.3588355255133388	-0.7713773079681775	-89.48744174537437	0	0.9399999999999999	0	45.02205468513709	-9.984325349236798	0	59.47156008137127	1.037974534717556	-4.990862674248207	0	0	45.02205468513709	-9.984325349236798	0	59.47156008137127	1.037974534717556	-4.990862674248207	0	0	-0.4071830218944424	3.229158147482091	-1.34036512023172	6.633191176493063	-0.4360409570498394	-5.895811266248807	60.85677466649173	45.01786051614465	0	0	0	-13.25341770749051	0	75.2272012754884	45.01786051614465	0	0
56	-0.3744525982778717	-0.763643824849075	-89.47815962273933	0	0.9399999999999999	0	45.02184600878229	-9.984689493604083	0	59.47648304213038	1.038060456591748	-4.991118386357273	0	0	45.02184600878229	-9.984689493604083	0	59.47648304213038	1.038060456591748	-4.991118386357273	0	0	-0.7513057393194664	4.014153757921992	-0.609995326263402	6.854717656985915	0.06103219182981151	-8.049187946037891	68.97931279734733	45.01750875666582	0	0	0	-13.26339514873467	0	75.2250531998065	45.01750875666582	0	0
57	-0.3868394869077483	-0.7496731597713768	-89.47195808957174	0	0.9399999999999999	0	45.02175155734511	-9.984853150067234	0	59.47870485843423	1.038099234601625	-4.991233018237199	0	0	45.02175155734511	-9.984853150067234	0	59.47870485843423	1.038099234601625	-4.991233018237199	0	0	-0.7066960176386271	4.008070541504337	-0.6135920595104126	7.672817938786473	2.120838695086788	-8.631284873527974	74.85927081692385	45.01735036762208	0	0	0	-13.26791840513298	0	75.22408093426736	45.01735036762208	0	0
58	-0.3766675203562628	-0.7785017724956862	-89.48464452018943	0	0.9399999999999999	0	45.02164652315539	-9.985031204763787	0	59.48119359213727	1.038142671198949	-4.991356916359817	0	0	45.02164652315539	-9.985031204763787	0	59.48119359213727	1.038142671198949	-4.991356916359817	0	0	-0.77571462165336	4.010797593157284	-0.6021985850315564	7.954073919827587	3.402308086846587	-8.941862708901656	81.49580289560711	45.01717715182674	0	0	0	-13.27298481453114	0	75.22299973201494	45.01717715182674	0	0
59	-0.369445679373519	-0.7905956711465955	-89.48734575105837	0	0.9399999999999999	0	45.0215616950414	-9.985174451227564	0	59.48320219975754	1.038177728015303	-4.991456463647577	0	0	45.0215616950414	-9.985174451227564	0	59.48320219975754	1.038177728015303	-4.991456463647577	0	0	-0.7882025317061233	4.014460236926783	-0.6028091020318549	8.557041294497015	4.712887173706844	-8.705520474628079	85.43693844018192	45.01703766229858	0	0	0	-13.27708102311735	0	75.22212652733695	45.01703766229858	0	0
60	-0.3670571482426866	-0.77655798391241	-89.48087949737766	0	0.9399999999999999	0	45.02148184873225	-9.985361736253418	0	59.48470545987347	1.03820396485384	-4.991595859734791	0	0	45.02148184873225	-9.985361736253418	0	59.48470545987347	1.03820396485384	-4.991595859734791	0	0	-0.7611592569966025	4.020974266874567	-0.6114491429770712	8.548339883189103	4.703254802232597	-8.695987127622349	85.41971449126112	45.01686621568098	0	0	0	-13.28036072527883	0	75.22130460185589	45.01686621568098	0	0
61	-0.371738607061967	-0.731193284484929	-89.46925066893365	0	0.9399999999999999	0	45.02147568241597	-9.985376382795442	0	59.48482181275138	1.038205995594653	-4.991606823208099	0	0	45.02147568241597	-9.985376382795442	0	59.48482181275138	1.038205995594653	-4.991606823208099	0	0	-0.6829656588416768	4.008698468556504	-0.6288857691658127	8.816261878794725	5.049001538718674	-8.754616319834273	83.94629105131442	45.01685286103161	0	0	0	-13.28061382919763	0	75.22124112674959	45.01685286103161	0	0
62	-0.3821191622921226	-0.730727762136961	-89.47529204762816	0	0.9399999999999999	0	45.02137193717527	-9.985547171679777	0	59.48729030949373	1.038249078990382	-4.99172444235851	0	0	45.02137193717527	-9.985547171679777	0	59.48729030949373	1.038249078990382	-4.99172444235851	0	0	-0.6833140075537142	4.015409291506716	-0.6286799269880092	9.267843443592598	3.511640339118737	-9.382018865440019	81.26086170214872	45.01668544227516	0	0	0	-13.28565758083503	0	75.22017319288298	45.01668544227516	0	0
63	-0.3741337841797742	-0.7388979044512262	-89.47142122243274	0	0.9399999999999999	0	45.02128301747644	-9.98569375019003	0	59.48939843131647	1.038285872657222	-4.991825388247568	0	0	45.02128301747644	-9.98569375019003	0	59.48939843131647	1.038285872657222	-4.991825388247568	0	0	-0.6905453723363633	4.008019458032866	-0.6202647784337596	8.450574519499231	2.634531135677026	-7.974449002908557	77.44747799198751	45.01654177464872	0	0	0	-13.28997649290342	0	75.21925787031869	45.01654177464872	0	0
64	-0.3744523484974454	-0.7243010891981591	-89.46923602076536	0	0.9399999999999999	0	45.02112509413928	-9.985950107979674	0	59.49316754029879	1.03835165601883	-4.992001204902554	0	0	45.02112509413928	-9.985950107979674	0	59.49316754029879	1.03835165601883	-4.992001204902554	0	0	-0.6637520236585354	4.009220824741202	-0.6270630591918759	7.936444731774073	1.318124413896506	-7.158953810927438	69.86163875887915	45.01628965526115	0	0	0	-13.29769102106096	0	75.217632237549	45.01628965526115	0	0
65	-0.3718955742211706	-0.7426092994293454	-89.47544688299818	0	0.9399999999999999	0	45.02097025579445	-9.98619972654912	0	59.49685887152882	1.038416081902576	-4.992171983242386	0	0	45.02097025579445	-9.98619972654912	0	59.49685887152882	1.038416081902576	-4.992171983242386	0	0	-0.7006410998209631	4.01185057668141	-0.6231173998349336	8.147202190560588	-0.5196140721803906	-5.631145677382779	62.82043597691654	45.01604372324216	0	0	0	-13.30526876853869	0	75.2160383611611	45.01604372324216	0	0
66	-0.3896211162478145	-0.7250223228869959	-89.47976525678422	0	0.9399999999999999	0	45.02084600007478	-9.986398766771801	0	59.49981703575047	1.038467711608058	-4.9923078375676	0	0	45.02084600007478	-9.986398766771801	0	59.49981703575047	1.038467711608058	-4.9923078375676	0	0	-0.6701391326279635	4.017204816444256	-0.612371432960213	6.888941315663962	-2.829938355028129	-5.045541184678722	56.39476571767621	45.01584728819964	0	0	0	-13.31135949452151	0	75.21475929652217	45.01584728819964	0	0
67	-0.3721178461248476	-0.7546816794016543	-89.47315447531949	0	0.9399999999999999	0	45.02070499436847	-9.986623791575173	0	59.50316842804814	1.038526204438179	-4.992461201384135	0	0	45.02070499436847	-9.986623791575173	0	59.50316842804814	1.038526204438179	-4.992461201384135	0	0	-0.7272694301372071	4.008866989070477	-0.621437277759289	7.08612278178691	-3.481278597497822	-3.867943944858874	48.27527880867269	45.01562497758783	0	0	0	-13.31827706947866	0	75.21330781074575	45.01562497758783	0	0
68	-0.3716843061795511	-0.7573749380529962	-89.47206085225766	0	0.9399999999999999	0	45.02057965543699	-9.98682400721823	0	59.50613699231206	1.038578015658641	-4.992597651307373	0	0	45.02057965543699	-9.98682400721823	0	59.50613699231206	1.038578015658641	-4.992597651307373	0	0	-0.7296060538197029	4.008408090240239	-0.6203427684143012	7.423073089677395	-4.706813808519212	-3.525532491829714	39.83347627493215	45.0154271943326	0	0	0	-13.32442209119082	0	75.21201759573853	45.0154271943326	0	0
69	-0.3697825469568407	-0.7580262891449996	-89.47477865207995	0	0.9399999999999999	0	45.02047977904574	-9.986985662517963	0	59.50848426498283	1.038618983295188	-4.992708212168005	0	0	45.02047977904574	-9.986985662517963	0	59.50848426498283	1.038618983295188	-4.992708212168005	0	0	-0.7337952914092162	4.008040621338764	-0.6201237503685986	7.656440122674729	-5.484949193569874	-1.835624160115709	31.64564578194089	45.01526797119098	0	0	0	-13.32929598826377	0	75.21098948716633	45.01526797119098	0	0
70	-0.3769932851919097	-0.7236417775778585	-89.49487368428194	0	0.9399999999999999	0	45.02040998477819	-9.987099153824779	0	59.51012249674545	1.038647575833357	-4.992785960589154	0	0	45.02040998477819	-9.987099153824779	0	59.51012249674545	1.038647575833357	-4.992785960589154	0	0	-0.3135624984906936	4.743997044642239	-1.357360971573977	6.304304244379566	-5.819619962892071	-0.6972983608057766	25.49999423820698	45.01515632816329	0	0	0	-13.33269877878109	0	75.21027103824342	45.01515632816329	0	0
71	-0.3619346781237247	-0.7575725319874903	-89.47699390799285	0	0.9399999999999999	0	45.0203747253982	-9.987165399252845	0	59.5109042593965	1.038661220165586	-4.992833135207413	0	0	45.0203747253982	-9.987165399252845	0	59.5109042593965	1.038661220165586	-4.992833135207413	0	0	-0.3791237520289609	4.741286168246456	-1.399890756472436	6.486655439813959	-6.123053494460211	1.138341551805481	18.11172219562279	45.0150932142997	0	0	0	-13.33433086787556	0	75.20990808455429	45.0150932142997	0	0
72	-0.01112423828481491	0.006002550943663968	-90.01467638964691	0	0.9399999999999999	0	45.02032953032251	-9.987236876531883	0	59.51196680664764	1.038679765113577	-4.992881598422835	0	0	45.02032953032251	-9.987236876531883	0	59.51196680664764	1.038679765113577	-4.992881598422835	0	0	0.331082727393492	4.39875529413455	-0.8579445486100757	5.235852793675501	-6.33801854071579	1.862653131602118	15.7891108875412	45.01502236938657	0	0	0	-13.33654843526394	0	75.20944285509096	45.01502236938657	0	0
73	-0.3735604394673721	-0.7403914215219418	-89.47988149797418	0	0.9399999999999999	0	45.02032361983516	-9.98724983680969	0	59.51207823160195	1.038681709845898	-4.992891026102709	0	0	45.02032361983516	-9.98724983680969	0	59.51207823160195	1.038681709845898	-4.992891026102709	0	0	0.4076550314169397	5.030818267818978	-1.107059549619934	4.437938409237268	-8.076146144269797	1.454208634822759	13.38106260778814	45.0150103019025	0	0	0	-13.33679611157503	0	75.20938201350225	45.0150103019025	0	0
